<svg width="18" height="21" viewBox="0 0 18 21" fill="none" xmlns="http://www.w3.org/2000/svg">
<path d="M14.4906 7.10057C14.4906 5.6694 13.922 4.29685 12.91 3.28486C11.8981 2.27288 10.5255 1.70435 9.09434 1.70435C7.66317 1.70435 6.29062 2.27288 5.27863 3.28486C4.26664 4.29685 3.69811 5.6694 3.69811 7.10057C3.69811 13.3962 1 15.1949 1 15.1949H17.1887C17.1887 15.1949 14.4906 13.3962 14.4906 7.10057Z" stroke="#525D72" stroke-width="1.5" stroke-linecap="round" stroke-linejoin="round"/>
<path d="M10.6502 18.7925C10.492 19.0651 10.2651 19.2913 9.99202 19.4486C9.71895 19.6059 9.40936 19.6887 9.09424 19.6887C8.77912 19.6887 8.46953 19.6059 8.19647 19.4486C7.9234 19.2913 7.69645 19.0651 7.53833 18.7925" stroke="#525D72" stroke-width="1.5" stroke-linecap="round" stroke-linejoin="round"/>
</svg>
