<svg width="16" height="16" viewBox="0 0 16 16" fill="none" xmlns="http://www.w3.org/2000/svg">
<path d="M1.61426 12.333V7.79982C1.61426 5.9964 2.33067 4.26684 3.60588 2.99162C4.88109 1.71641 6.61066 1 8.41408 1C10.2175 1 11.9471 1.71641 13.2223 2.99162C14.4975 4.26684 15.2139 5.9964 15.2139 7.79982V12.333" stroke="#525D72" stroke-width="1.4" stroke-linecap="round" stroke-linejoin="round"/>
<path d="M15.2139 13.0886C15.2139 13.4894 15.0547 13.8737 14.7713 14.1571C14.4879 14.4405 14.1036 14.5997 13.7028 14.5997H12.9473C12.5465 14.5997 12.1622 14.4405 11.8788 14.1571C11.5954 13.8737 11.4362 13.4894 11.4362 13.0886V10.822C11.4362 10.4212 11.5954 10.0369 11.8788 9.7535C12.1622 9.47012 12.5465 9.31091 12.9473 9.31091H15.2139V13.0886ZM1.61426 13.0886C1.61426 13.4894 1.77346 13.8737 2.05684 14.1571C2.34022 14.4405 2.72457 14.5997 3.12533 14.5997H3.88087C4.28163 14.5997 4.66597 14.4405 4.94935 14.1571C5.23274 13.8737 5.39194 13.4894 5.39194 13.0886V10.822C5.39194 10.4212 5.23274 10.0369 4.94935 9.7535C4.66597 9.47012 4.28163 9.31091 3.88087 9.31091H1.61426V13.0886Z" stroke="#525D72" stroke-width="1.4" stroke-linecap="round" stroke-linejoin="round"/>
</svg>
