<svg width="16" height="19" viewBox="0 0 16 19" fill="none" xmlns="http://www.w3.org/2000/svg">
<path d="M15.2139 7.91054C15.2139 13.1993 8.41408 17.7325 8.41408 17.7325C8.41408 17.7325 1.61426 13.1993 1.61426 7.91054C1.61426 6.10712 2.33067 4.37755 3.60588 3.10234C4.88109 1.82713 6.61066 1.11072 8.41408 1.11072C10.2175 1.11072 11.9471 1.82713 13.2223 3.10234C14.4975 4.37755 15.2139 6.10712 15.2139 7.91054Z" stroke="#525D72" stroke-width="1.4" stroke-linecap="round" stroke-linejoin="round"/>
<path d="M8.41407 10.1771C9.66588 10.1771 10.6807 9.16234 10.6807 7.91053C10.6807 6.65872 9.66588 5.64392 8.41407 5.64392C7.16226 5.64392 6.14746 6.65872 6.14746 7.91053C6.14746 9.16234 7.16226 10.1771 8.41407 10.1771Z" stroke="#525D72" stroke-width="1.4" stroke-linecap="round" stroke-linejoin="round"/>
</svg>
