<svg width="18" height="18" viewBox="0 0 18 18" fill="none" xmlns="http://www.w3.org/2000/svg">
<path d="M9 17C13.4183 17 17 13.4183 17 9C17 4.58172 13.4183 1 9 1C4.58172 1 1 4.58172 1 9C1 13.4183 4.58172 17 9 17Z" stroke="#525D72" stroke-width="1.4" stroke-linecap="round" stroke-linejoin="round"/>
<path d="M9.00005 12.1998C10.7674 12.1998 12.2 10.7671 12.2 8.9998C12.2 7.23249 10.7674 5.7998 9.00005 5.7998C7.23274 5.7998 5.80005 7.23249 5.80005 8.9998C5.80005 10.7671 7.23274 12.1998 9.00005 12.1998Z" stroke="#525D72" stroke-width="1.4" stroke-linecap="round" stroke-linejoin="round"/>
<path d="M3.34399 3.34399L6.73599 6.73599" stroke="#525D72" stroke-width="1.4" stroke-linecap="round" stroke-linejoin="round"/>
<path d="M11.264 11.2642L14.656 14.6562" stroke="#525D72" stroke-width="1.4" stroke-linecap="round" stroke-linejoin="round"/>
<path d="M11.264 6.73587L14.088 3.91187" stroke="#525D72" stroke-width="1.4" stroke-linecap="round" stroke-linejoin="round"/>
<path d="M3.34399 14.6562L6.73599 11.2642" stroke="#525D72" stroke-width="1.4" stroke-linecap="round" stroke-linejoin="round"/>
</svg>
