<svg width="14" height="16" viewBox="0 0 14 16" fill="none" xmlns="http://www.w3.org/2000/svg">
<path d="M3 1L1 3.8V13.6C1 13.9713 1.14048 14.3274 1.39052 14.5899C1.64057 14.8525 1.97971 15 2.33333 15H11.6667C12.0203 15 12.3594 14.8525 12.6095 14.5899C12.8595 14.3274 13 13.9713 13 13.6V3.8L11 1H3Z" stroke="#525D72" stroke-width="1.4" stroke-linecap="round" stroke-linejoin="round"/>
<path d="M0.93335 3.6001H13.0667" stroke="#525D72" stroke-width="1.4" stroke-linecap="round" stroke-linejoin="round"/>
<path d="M9.60002 6.19995C9.60002 6.88951 9.3261 7.55083 8.8385 8.03843C8.35091 8.52602 7.68959 8.79995 7.00002 8.79995C6.31046 8.79995 5.64914 8.52602 5.16155 8.03843C4.67395 7.55083 4.40002 6.88951 4.40002 6.19995" stroke="#525D72" stroke-width="1.4" stroke-linecap="round" stroke-linejoin="round"/>
</svg>
