<svg width="19" height="19" viewBox="0 0 19 19" fill="none" xmlns="http://www.w3.org/2000/svg">
<path d="M9.01905 11.5775C10.2709 11.5775 11.2857 10.5627 11.2857 9.31086C11.2857 8.05905 10.2709 7.04425 9.01905 7.04425C7.76724 7.04425 6.75244 8.05905 6.75244 9.31086C6.75244 10.5627 7.76724 11.5775 9.01905 11.5775Z" stroke="#525D72" stroke-width="1.4" stroke-linecap="round" stroke-linejoin="round"/>
<path d="M14.6099 11.5775C14.5093 11.8054 14.4793 12.0582 14.5237 12.3033C14.5682 12.5484 14.685 12.7745 14.8592 12.9526L14.9045 12.9979C15.045 13.1382 15.1565 13.3049 15.2325 13.4883C15.3086 13.6718 15.3477 13.8684 15.3477 14.067C15.3477 14.2656 15.3086 14.4622 15.2325 14.6456C15.1565 14.8291 15.045 14.9957 14.9045 15.1361C14.7642 15.2766 14.5975 15.388 14.4141 15.4641C14.2307 15.5401 14.034 15.5793 13.8354 15.5793C13.6369 15.5793 13.4402 15.5401 13.2568 15.4641C13.0734 15.388 12.9067 15.2766 12.7664 15.1361L12.721 15.0907C12.543 14.9166 12.3168 14.7997 12.0717 14.7553C11.8266 14.7108 11.5738 14.7408 11.346 14.8414C11.1225 14.9372 10.9319 15.0962 10.7977 15.2989C10.6634 15.5016 10.5914 15.7392 10.5904 15.9823V16.1107C10.5904 16.5115 10.4312 16.8958 10.1478 17.1792C9.86445 17.4626 9.48011 17.6218 9.07935 17.6218C8.67859 17.6218 8.29424 17.4626 8.01086 17.1792C7.72748 16.8958 7.56827 16.5115 7.56827 16.1107V16.0427C7.56243 15.7926 7.48148 15.5501 7.33596 15.3466C7.19043 15.1432 6.98707 14.9882 6.7523 14.9019C6.52441 14.8013 6.27163 14.7713 6.02654 14.8157C5.78144 14.8602 5.55528 14.977 5.37722 15.1512L5.33189 15.1965C5.19155 15.337 5.0249 15.4485 4.84146 15.5245C4.65801 15.6006 4.46138 15.6397 4.2628 15.6397C4.06423 15.6397 3.8676 15.6006 3.68415 15.5245C3.50071 15.4485 3.33406 15.337 3.19372 15.1965C3.05323 15.0562 2.94177 14.8895 2.86573 14.7061C2.78968 14.5226 2.75054 14.326 2.75054 14.1274C2.75054 13.9289 2.78968 13.7322 2.86573 13.5488C2.94177 13.3653 3.05323 13.1987 3.19372 13.0584L3.23905 13.013C3.41323 12.835 3.53008 12.6088 3.57451 12.3637C3.61895 12.1186 3.58895 11.8658 3.48838 11.6379C3.39261 11.4145 3.23358 11.2239 3.03088 11.0897C2.82817 10.9554 2.59064 10.8834 2.34752 10.8824H2.21908C1.81832 10.8824 1.43397 10.7232 1.15059 10.4398C0.86721 10.1564 0.708008 9.7721 0.708008 9.37134C0.708008 8.97058 0.86721 8.58623 1.15059 8.30285C1.43397 8.01947 1.81832 7.86027 2.21908 7.86027H2.28708C2.53716 7.85442 2.77969 7.77347 2.98315 7.62795C3.18661 7.48243 3.34159 7.27906 3.42794 7.04429C3.52851 6.81641 3.55851 6.56362 3.51407 6.31853C3.46963 6.07344 3.35279 5.84728 3.17861 5.66921L3.13328 5.62388C2.99278 5.48354 2.88133 5.31689 2.80529 5.13345C2.72924 4.95001 2.6901 4.75338 2.6901 4.5548C2.6901 4.35622 2.72924 4.15959 2.80529 3.97615C2.88133 3.79271 2.99278 3.62605 3.13328 3.48571C3.27362 3.34522 3.44027 3.23376 3.62371 3.15772C3.80715 3.08168 4.00378 3.04254 4.20236 3.04254C4.40094 3.04254 4.59757 3.08168 4.78101 3.15772C4.96445 3.23376 5.13111 3.34522 5.27145 3.48571L5.31678 3.53105C5.49484 3.70522 5.721 3.82207 5.96609 3.86651C6.21119 3.91095 6.46397 3.88095 6.69185 3.78037H6.7523C6.97576 3.6846 7.16634 3.52557 7.30058 3.32287C7.43482 3.12017 7.50686 2.88263 7.50783 2.63951V2.51107C7.50783 2.11031 7.66703 1.72596 7.95042 1.44258C8.2338 1.1592 8.61814 1 9.0189 1C9.41967 1 9.80401 1.1592 10.0874 1.44258C10.3708 1.72596 10.53 2.11031 10.53 2.51107V2.57907C10.5309 2.82219 10.603 3.05972 10.7372 3.26243C10.8715 3.46513 11.062 3.62416 11.2855 3.71993C11.5134 3.8205 11.7662 3.8505 12.0113 3.80606C12.2564 3.76162 12.4825 3.64478 12.6606 3.4706L12.7059 3.42527C12.8463 3.28478 13.0129 3.17332 13.1964 3.09728C13.3798 3.02123 13.5764 2.98209 13.775 2.98209C13.9736 2.98209 14.1702 3.02123 14.3537 3.09728C14.5371 3.17332 14.7037 3.28478 14.8441 3.42527C14.9846 3.56561 15.096 3.73226 15.1721 3.9157C15.2481 4.09914 15.2873 4.29578 15.2873 4.49435C15.2873 4.69293 15.2481 4.88956 15.1721 5.073C15.096 5.25645 14.9846 5.4231 14.8441 5.56344L14.7988 5.60877C14.6246 5.78683 14.5077 6.01299 14.4633 6.25809C14.4189 6.50318 14.4489 6.75596 14.5494 6.98385V7.04429C14.6452 7.26775 14.8042 7.45833 15.0069 7.59258C15.2096 7.72682 15.4472 7.79885 15.6903 7.79982H15.8187C16.2195 7.79982 16.6038 7.95903 16.8872 8.24241C17.1706 8.52579 17.3298 8.91013 17.3298 9.3109C17.3298 9.71166 17.1706 10.096 16.8872 10.3794C16.6038 10.6628 16.2195 10.822 15.8187 10.822H15.7507C15.5076 10.8229 15.2701 10.895 15.0674 11.0292C14.8647 11.1635 14.7056 11.354 14.6099 11.5775Z" stroke="#525D72" stroke-width="1.4" stroke-linecap="round" stroke-linejoin="round"/>
</svg>
