<svg width="17" height="13" viewBox="0 0 17 13" fill="none" xmlns="http://www.w3.org/2000/svg">
<path d="M11.232 1H1V9.17848H11.232V1Z" stroke="white" stroke-width="1.2" stroke-linecap="round" stroke-linejoin="round"/>
<path d="M11.2319 4.14575H13.9605V4.14575C15.2649 5.34879 16.0069 7.04245 16.0069 8.81695V9.17867H11.2319V4.14575Z" stroke="white" stroke-width="1.2" stroke-linecap="round" stroke-linejoin="round"/>
<path d="M4.06959 12.3238C5.01143 12.3238 5.77493 11.6196 5.77493 10.751C5.77493 9.88238 5.01143 9.17822 4.06959 9.17822C3.12776 9.17822 2.36426 9.88238 2.36426 10.751C2.36426 11.6196 3.12776 12.3238 4.06959 12.3238Z" stroke="white" stroke-width="1.2" stroke-linecap="round" stroke-linejoin="round"/>
<path d="M12.9373 12.3238C13.8791 12.3238 14.6426 11.6196 14.6426 10.751C14.6426 9.88238 13.8791 9.17822 12.9373 9.17822C11.9954 9.17822 11.2319 9.88238 11.2319 10.751C11.2319 11.6196 11.9954 12.3238 12.9373 12.3238Z" stroke="white" stroke-width="1.2" stroke-linecap="round" stroke-linejoin="round"/>
</svg>
