<svg width="16" height="17" viewBox="0 0 16 17" fill="none" xmlns="http://www.w3.org/2000/svg">
<path d="M14.5996 11.576V5.53167C14.5994 5.26668 14.5294 5.00643 14.3968 4.77701C14.2642 4.54759 14.0736 4.35708 13.8441 4.22459L8.55536 1.20245C8.32565 1.06982 8.06507 1 7.79982 1C7.53457 1 7.274 1.06982 7.04429 1.20245L1.75554 4.22459C1.52605 4.35708 1.33544 4.54759 1.20283 4.77701C1.07022 5.00643 1.00027 5.26668 1 5.53167V11.576C1.00027 11.8409 1.07022 12.1012 1.20283 12.3306C1.33544 12.56 1.52605 12.7505 1.75554 12.883L7.04429 15.9052C7.274 16.0378 7.53457 16.1076 7.79982 16.1076C8.06507 16.1076 8.32565 16.0378 8.55536 15.9052L13.8441 12.883C14.0736 12.7505 14.2642 12.56 14.3968 12.3306C14.5294 12.1012 14.5994 11.8409 14.5996 11.576Z" stroke="white" stroke-width="1.4" stroke-linecap="round" stroke-linejoin="round"/>
<path d="M1.2041 4.74585L7.79993 8.56131L14.3958 4.74585" stroke="white" stroke-width="1.4" stroke-linecap="round" stroke-linejoin="round"/>
<path d="M7.7998 16.1695V8.55371" stroke="white" stroke-width="1.4" stroke-linecap="round" stroke-linejoin="round"/>
</svg>
