<svg width="23" height="20" viewBox="0 0 23 20" fill="none" xmlns="http://www.w3.org/2000/svg">
<path d="M17 5H6V15H17V5Z" stroke="#525D72" stroke-width="1.4" stroke-linecap="round" stroke-linejoin="round"/>
<path d="M17 9H19.8571L22 11.25V15H17V9Z" stroke="#525D72" stroke-width="1.4" stroke-linecap="round" stroke-linejoin="round"/>
<path d="M9 19C10.1046 19 11 18.1046 11 17C11 15.8954 10.1046 15 9 15C7.89543 15 7 15.8954 7 17C7 18.1046 7.89543 19 9 19Z" stroke="#525D72" stroke-width="1.4" stroke-linecap="round" stroke-linejoin="round"/>
<path d="M19 19C20.1046 19 21 18.1046 21 17C21 15.8954 20.1046 15 19 15C17.8954 15 17 15.8954 17 17C17 18.1046 17.8954 19 19 19Z" stroke="#525D72" stroke-width="1.4" stroke-linecap="round" stroke-linejoin="round"/>
<path d="M6 11C8.76142 11 11 8.76142 11 6C11 3.23858 8.76142 1 6 1C3.23858 1 1 3.23858 1 6C1 8.76142 3.23858 11 6 11Z" fill="white" stroke="#525D72" stroke-width="1.4" stroke-linecap="round" stroke-linejoin="round"/>
<path d="M6 3.85718V6.00003L7.07143 7.07146" stroke="#525D72" stroke-width="1.4" stroke-linecap="round" stroke-linejoin="round"/>
</svg>
