<svg width="33" height="27" viewBox="0 0 33 27" fill="none" xmlns="http://www.w3.org/2000/svg">
<path d="M17.002 13.2717V25.5469" stroke="#3672DF" stroke-width="2" stroke-linecap="round" stroke-linejoin="round"/>
<path d="M28.4456 21.9872C29.7759 21.2619 30.8268 20.1144 31.4324 18.7256C32.038 17.3367 32.1639 15.7858 31.7902 14.3175C31.4165 12.8492 30.5644 11.5472 29.3685 10.6169C28.1726 9.68661 26.701 9.18109 25.1859 9.18009H23.4673C23.0545 7.58328 22.2851 6.10084 21.2168 4.84422C20.1486 3.58759 18.8094 2.58949 17.2999 1.92493C15.7904 1.26038 14.1499 0.946673 12.5017 1.0074C10.8535 1.06813 9.24053 1.5017 7.78403 2.27554C6.32752 3.04937 5.0654 4.14332 4.09254 5.47515C3.11968 6.80697 2.4614 8.34201 2.16719 9.96487C1.87298 11.5877 1.9505 13.2562 2.39392 14.8447C2.83734 16.4333 3.63511 17.9007 4.72727 19.1366" stroke="#2B2B2B" stroke-width="2" stroke-linecap="round" stroke-linejoin="round"/>
<path d="M22.4581 18.7274L17.0025 13.2717L11.5469 18.7274" stroke="#3672DF" stroke-width="2" stroke-linecap="round" stroke-linejoin="round"/>
</svg>
