<svg width="17" height="15" viewBox="0 0 17 15" fill="none" xmlns="http://www.w3.org/2000/svg">
<path d="M12.0413 13.875V12.4583C12.0413 11.7069 11.7428 10.9862 11.2115 10.4549C10.6801 9.92351 9.95945 9.625 9.20801 9.625H3.54134C2.78989 9.625 2.06922 9.92351 1.53787 10.4549C1.00652 10.9862 0.708008 11.7069 0.708008 12.4583V13.875" stroke="#525D72" stroke-width="1.4" stroke-linecap="round" stroke-linejoin="round"/>
<path d="M6.37435 6.79167C7.93916 6.79167 9.20768 5.52314 9.20768 3.95833C9.20768 2.39353 7.93916 1.125 6.37435 1.125C4.80954 1.125 3.54102 2.39353 3.54102 3.95833C3.54102 5.52314 4.80954 6.79167 6.37435 6.79167Z" stroke="#525D72" stroke-width="1.4" stroke-linecap="round" stroke-linejoin="round"/>
<path d="M16.291 13.875V12.4583C16.2905 11.8305 16.0816 11.2207 15.697 10.7245C15.3124 10.2284 14.7739 9.87398 14.166 9.71704" stroke="#525D72" stroke-width="1.4" stroke-linecap="round" stroke-linejoin="round"/>
<path d="M11.333 1.21704C11.9425 1.37309 12.4827 1.72754 12.8684 2.22451C13.2542 2.72148 13.4636 3.33271 13.4636 3.96183C13.4636 4.59095 13.2542 5.20218 12.8684 5.69915C12.4827 6.19613 11.9425 6.55058 11.333 6.70662" stroke="#525D72" stroke-width="1.4" stroke-linecap="round" stroke-linejoin="round"/>
</svg>
