<svg width="18" height="13" viewBox="0 0 18 13" fill="none" xmlns="http://www.w3.org/2000/svg">
<path d="M8 1H1V9H12V5C12 2.79086 10.2091 1 8 1Z" stroke="#BBC2CF" stroke-width="1.2" stroke-linecap="round" stroke-linejoin="round"/>
<path d="M12.2319 4.14575H12.5409C14.0967 4.14575 15.5954 4.73137 16.7391 5.78612V5.78612C16.9098 5.94355 17.0069 6.16518 17.0069 6.39739V9.17867H12.2319V4.14575Z" stroke="#BBC2CF" stroke-width="1.2" stroke-linecap="round" stroke-linejoin="round"/>
<path d="M5.06959 12.3238C6.01143 12.3238 6.77493 11.6196 6.77493 10.751C6.77493 9.88238 6.01143 9.17822 5.06959 9.17822C4.12776 9.17822 3.36426 9.88238 3.36426 10.751C3.36426 11.6196 4.12776 12.3238 5.06959 12.3238Z" stroke="#BBC2CF" stroke-width="1.2" stroke-linecap="round" stroke-linejoin="round"/>
<path d="M13.9373 12.3238C14.8791 12.3238 15.6426 11.6196 15.6426 10.751C15.6426 9.88238 14.8791 9.17822 13.9373 9.17822C12.9954 9.17822 12.2319 9.88238 12.2319 10.751C12.2319 11.6196 12.9954 12.3238 13.9373 12.3238Z" stroke="#BBC2CF" stroke-width="1.2" stroke-linecap="round" stroke-linejoin="round"/>
</svg>
