<svg width="16" height="17" viewBox="0 0 16 17" fill="none" xmlns="http://www.w3.org/2000/svg">
<path d="M15.2139 11.3084V5.26415C15.2136 4.99916 15.1437 4.73891 15.0111 4.50949C14.8785 4.28008 14.6879 4.08956 14.4584 3.95707L9.16962 0.934928C8.9399 0.802304 8.67933 0.732483 8.41408 0.732483C8.14883 0.732483 7.88826 0.802304 7.65855 0.934928L2.36979 3.95707C2.14031 4.08956 1.9497 4.28008 1.81709 4.50949C1.68448 4.73891 1.61453 4.99916 1.61426 5.26415V11.3084C1.61453 11.5734 1.68448 11.8337 1.81709 12.0631C1.9497 12.2925 2.14031 12.483 2.36979 12.6155L7.65855 15.6377C7.88826 15.7703 8.14883 15.8401 8.41408 15.8401C8.67933 15.8401 8.9399 15.7703 9.16962 15.6377L14.4584 12.6155C14.6879 12.483 14.8785 12.2925 15.0111 12.0631C15.1437 11.8337 15.2136 11.5734 15.2139 11.3084Z" stroke="#525D72" stroke-width="1.4" stroke-linecap="round" stroke-linejoin="round"/>
<path d="M1.81836 4.47833L8.41419 8.29379L15.01 4.47833" stroke="#525D72" stroke-width="1.4" stroke-linecap="round" stroke-linejoin="round"/>
<path d="M8.41406 15.9021V8.28625" stroke="#525D72" stroke-width="1.4" stroke-linecap="round" stroke-linejoin="round"/>
</svg>
